<svg width="402" height="467" viewBox="0 0 402 467" xmlns="http://www.w3.org/2000/svg">
<path d="M326.625 117.045V29.5558C326.625 13.4524 315.374 0.392853 301.5 0.392853H25.125C11.2513 0.392853 0 13.4524 0 29.5558V117.045C0 133.148 11.2513 146.208 25.125 146.208H301.5C315.374 146.208 326.625 133.148 326.625 117.045ZM351.75 58.7187V175.371C351.75 191.474 340.499 204.533 326.625 204.533H201C173.245 204.533 150.75 230.643 150.75 262.859V292.022C136.876 292.022 125.625 305.082 125.625 321.185V437.837C125.625 453.94 136.876 467 150.75 467H201C214.874 467 226.125 453.94 226.125 437.837V321.185C226.125 305.082 214.874 292.022 201 292.022V262.859H326.625C368.254 262.859 402 223.69 402 175.371V117.045C402 84.8287 379.505 58.7187 351.75 58.7187Z" fill="#93E2AE" fill-opacity="0.15"/>
</svg>
