<svg width="301" height="510" viewBox="0 0 301 510" xmlns="http://www.w3.org/2000/svg">
<path d="M147.919 508.109L149.246 417.906C149.392 407.942 142.201 399.782 133.183 399.68C124.165 399.578 116.735 407.572 116.588 417.536L115.261 507.739L82.6038 507.369L84.4587 381.304C84.6053 371.341 77.4121 363.181 68.3954 363.079C59.3787 362.977 51.9479 370.971 51.8013 380.934L49.9465 506.999L0.960416 506.444L4.14453 290.034L298.061 293.364L294.877 509.775L147.919 508.109Z" fill="#93E2AE" fill-opacity="0.15"/>
<path d="M296.571 256.044L296.837 237.991C297.423 198.11 268.682 165.449 232.64 165.04L200.011 164.67L201.603 56.386C202.043 26.4763 180.487 1.9793 153.456 1.67253C126.425 1.36576 104.155 25.3654 103.716 55.2751L102.123 163.559L69.4938 163.188C33.4515 162.779 3.7598 194.777 3.17329 234.658L2.9078 252.711L296.571 256.044Z" fill="#93E2AE" fill-opacity="0.15"/>
</svg>
