<svg width="59" height="59" viewBox="0 0 59 59" xmlns="http://www.w3.org/2000/svg">
<path d="M27.5459 31.1265L8.19746 16.0827L6.63985 14.8706L8.20313 16.0884V45.6095H50.7969V16.0884L31.4371 31.1265C30.8807 31.5587 30.1961 31.7934 29.4915 31.7934C28.7869 31.7934 28.1023 31.5587 27.5459 31.1265Z" fill-opacity="0.15"/>
<path d="M50.1342 12.0103L52.3602 14.8706L50.7969 16.0884L52.3658 14.8706L50.1399 12.0103H50.1342Z"  fill-opacity="0.15"/>
<path d="M53.0625 9.8125H5.9375C4.93496 9.8125 4.125 10.6225 4.125 11.625V47.875C4.125 48.8775 4.93496 49.6875 5.9375 49.6875H53.0625C54.065 49.6875 54.875 48.8775 54.875 47.875V11.625C54.875 10.6225 54.065 9.8125 53.0625 9.8125ZM47.71 13.8963L29.5 28.0508L11.29 13.8963H47.71ZM50.7969 16.0883V45.6094H8.20312V16.0883L6.63984 14.8705L8.19746 16.0826L27.5459 31.1264C28.1023 31.5587 28.7869 31.7933 29.4915 31.7933C30.1961 31.7933 30.8807 31.5587 31.4371 31.1264L50.7969 16.0883ZM50.7969 16.0883L52.3602 14.8705L50.1342 12.0102H50.1398L52.3658 14.8705L50.7969 16.0883Z" />
</svg>
