<svg width="59" height="59" viewBox="0 0 59 59" xmlns="http://www.w3.org/2000/svg">
<path d="M53.6667 29.7499C53.6654 23.3409 51.1188 17.1948 46.587 12.6629C42.0551 8.13107 35.909 5.58453 29.5 5.58325V10.4166C33.3234 10.4175 37.0607 11.5515 40.2399 13.6755C43.419 15.7996 45.8973 18.8182 47.3616 22.3501C48.3334 24.6961 48.8335 27.2106 48.8333 29.7499H53.6667ZM5.33333 24.9166V12.8333C5.33333 12.1923 5.58794 11.5776 6.04115 11.1244C6.49437 10.6712 7.10906 10.4166 7.74999 10.4166H19.8333C20.4743 10.4166 21.089 10.6712 21.5422 11.1244C21.9954 11.5776 22.25 12.1923 22.25 12.8333V22.4999C22.25 23.1409 21.9954 23.7555 21.5422 24.2088C21.089 24.662 20.4743 24.9166 19.8333 24.9166H15C15 30.0441 17.0369 34.9616 20.6626 38.5873C24.2883 42.213 29.2058 44.2499 34.3333 44.2499V39.4166C34.3333 38.7756 34.5879 38.161 35.0412 37.7077C35.4944 37.2545 36.1091 36.9999 36.75 36.9999H46.4167C47.0576 36.9999 47.6723 37.2545 48.1255 37.7077C48.5787 38.161 48.8333 38.7756 48.8333 39.4166V51.4999C48.8333 52.1409 48.5787 52.7556 48.1255 53.2088C47.6723 53.662 47.0576 53.9166 46.4167 53.9166H34.3333C18.3181 53.9166 5.33333 40.9318 5.33333 24.9166Z"/>
<path d="M42.8956 24.2013C43.6251 25.9602 44.0004 27.8458 44 29.75H39.65C39.6503 28.417 39.388 27.097 38.878 25.8654C38.3681 24.6338 37.6204 23.5147 36.6778 22.5722C35.7353 21.6296 34.6162 20.8819 33.3846 20.372C32.153 19.862 30.833 19.5997 29.5 19.6V15.25C32.3677 15.2502 35.171 16.1007 37.5554 17.694C39.9398 19.2873 41.7982 21.5519 42.8956 24.2013Z" />
</svg>
