<svg width="59" height="59" viewBox="0 0 59 59" xmlns="http://www.w3.org/2000/svg">
<path d="M46.5375 12.6159C44.3219 10.3779 41.6829 8.60343 38.7743 7.39602C35.8657 6.18861 32.7459 5.57243 29.5967 5.5834C16.4017 5.5834 5.6475 16.3376 5.6475 29.5326C5.6475 33.7617 6.75916 37.8701 8.8375 41.4951L5.45416 53.9167L18.1417 50.5817C21.6458 52.4909 25.585 53.5059 29.5967 53.5059C42.7917 53.5059 53.5458 42.7517 53.5458 29.5567C53.5458 23.1526 51.0567 17.1351 46.5375 12.6159ZM29.5967 49.4459C26.02 49.4459 22.5158 48.4792 19.4467 46.6667L18.7217 46.2317L11.1817 48.2134L13.1875 40.8667L12.7042 40.1176C10.717 36.9444 9.66192 33.2766 9.65916 29.5326C9.65916 18.5609 18.6008 9.61923 29.5725 9.61923C34.8892 9.61923 39.8917 11.6976 43.6375 15.4676C45.4922 17.3138 46.9621 19.5098 47.9619 21.9283C48.9616 24.3468 49.4714 26.9397 49.4617 29.5567C49.51 40.5284 40.5683 49.4459 29.5967 49.4459ZM40.52 34.5592C39.9158 34.2692 36.9675 32.8192 36.4358 32.6017C35.88 32.4084 35.4933 32.3117 35.0825 32.8917C34.6717 33.4959 33.5358 34.8492 33.1975 35.2359C32.8592 35.6467 32.4967 35.6951 31.8925 35.3809C31.2883 35.0909 29.355 34.4384 27.0833 32.4084C25.295 30.8134 24.1108 28.8559 23.7483 28.2517C23.41 27.6476 23.7 27.3334 24.0142 27.0192C24.28 26.7534 24.6183 26.3184 24.9083 25.9801C25.1983 25.6417 25.3192 25.3759 25.5125 24.9892C25.7058 24.5784 25.6092 24.2401 25.4642 23.9501C25.3192 23.6601 24.1108 20.7117 23.6275 19.5034C23.1442 18.3434 22.6367 18.4884 22.2742 18.4642H21.1142C20.7033 18.4642 20.075 18.6092 19.5192 19.2134C18.9875 19.8176 17.4408 21.2676 17.4408 24.2159C17.4408 27.1642 19.5917 30.0159 19.8817 30.4026C20.1717 30.8134 24.1108 36.8551 30.1042 39.4409C31.53 40.0692 32.6417 40.4317 33.5117 40.6976C34.9375 41.1567 36.2425 41.0842 37.2817 40.9392C38.4417 40.7701 40.8342 39.4892 41.3175 38.0876C41.825 36.6859 41.825 35.5017 41.6558 35.2359C41.4867 34.9701 41.1242 34.8492 40.52 34.5592Z" />
</svg>