<svg width="340" height="65" viewBox="0 0 340 65" fill="none" xmlns="http://www.w3.org/2000/svg">
    <path d="M34.22 6.22729C-15.8922 6.22729 2.69852 57.2273 34.2202 57.2273L34.22 26.762H17.2816"
        stroke="white" stroke-width="5" />
    <path
        d="M52.2529 57.6236C50.3182 57.6236 48.652 57.2103 47.2543 56.3836C45.8651 55.5483 44.7912 54.3765 44.0327 52.8679C43.2827 51.3509 42.9077 49.5739 42.9077 47.537C42.9077 45.5256 43.2827 43.7529 44.0327 42.2188C44.7912 40.6847 45.8481 39.4872 47.2032 38.6265C48.5668 37.7657 50.1606 37.3353 51.9844 37.3353C53.0924 37.3353 54.1662 37.5185 55.206 37.885C56.2458 38.2515 57.179 38.8267 58.0057 39.6108C58.8324 40.3949 59.4844 41.4134 59.9617 42.6662C60.439 43.9105 60.6776 45.4233 60.6776 47.2046V48.5597H45.0682V45.6961H56.9319C56.9319 44.6904 56.7273 43.7997 56.3182 43.0242C55.9091 42.2401 55.3339 41.6222 54.5924 41.1705C53.8594 40.7188 52.9986 40.4929 52.01 40.4929C50.9361 40.4929 49.9986 40.7571 49.1975 41.2855C48.4049 41.8054 47.7912 42.4872 47.3566 43.331C46.9304 44.1662 46.7174 45.0739 46.7174 46.054V48.2912C46.7174 49.6037 46.9475 50.7202 47.4077 51.6407C47.8765 52.5611 48.5285 53.2642 49.3637 53.75C50.1989 54.2273 51.1748 54.4659 52.2912 54.4659C53.0157 54.4659 53.6762 54.3637 54.2728 54.1591C54.8694 53.9461 55.385 53.6307 55.8196 53.2131C56.2543 52.7955 56.5867 52.2799 56.8168 51.6662L60.4347 52.3182C60.1449 53.3836 59.625 54.3168 58.875 55.1179C58.1336 55.9105 57.2003 56.5284 56.0753 56.9716C54.9589 57.4063 53.6847 57.6236 52.2529 57.6236Z"
        fill="white" />
    <path
        d="M72.47 57.6236C70.6291 57.6236 69.0226 57.2017 67.6504 56.358C66.2783 55.5142 65.2129 54.3338 64.4544 52.8168C63.6959 51.2997 63.3166 49.527 63.3166 47.4986C63.3166 45.4617 63.6959 43.6804 64.4544 42.1549C65.2129 40.6293 66.2783 39.4446 67.6504 38.6009C69.0226 37.7571 70.6291 37.3353 72.47 37.3353C74.3109 37.3353 75.9175 37.7571 77.2896 38.6009C78.6618 39.4446 79.7271 40.6293 80.4857 42.1549C81.2442 43.6804 81.6234 45.4617 81.6234 47.4986C81.6234 49.527 81.2442 51.2997 80.4857 52.8168C79.7271 54.3338 78.6618 55.5142 77.2896 56.358C75.9175 57.2017 74.3109 57.6236 72.47 57.6236ZM72.4828 54.4148C73.676 54.4148 74.6646 54.0995 75.4487 53.4688C76.2328 52.8381 76.8124 51.9986 77.1874 50.9503C77.5709 49.902 77.7626 48.7472 77.7626 47.4858C77.7626 46.233 77.5709 45.0824 77.1874 44.0341C76.8124 42.9773 76.2328 42.1293 75.4487 41.4901C74.6646 40.8509 73.676 40.5313 72.4828 40.5313C71.2811 40.5313 70.284 40.8509 69.4913 41.4901C68.7072 42.1293 68.1234 42.9773 67.7399 44.0341C67.3649 45.0824 67.1774 46.233 67.1774 47.4858C67.1774 48.7472 67.3649 49.902 67.7399 50.9503C68.1234 51.9986 68.7072 52.8381 69.4913 53.4688C70.284 54.0995 71.2811 54.4148 72.4828 54.4148Z"
        fill="white" />
    <path
        d="M85.1701 57.2273V37.5909H88.8647V40.7103H89.0693C89.4272 39.6534 90.0579 38.8225 90.9613 38.2174C91.8733 37.6037 92.9045 37.2969 94.0551 37.2969C94.2937 37.2969 94.575 37.3054 94.8988 37.3225C95.2312 37.3395 95.4912 37.3608 95.6787 37.3864V41.0426C95.5252 41 95.2525 40.9532 94.8605 40.902C94.4684 40.8424 94.0764 40.8125 93.6843 40.8125C92.7809 40.8125 91.9755 41.0043 91.2681 41.3878C90.5693 41.7628 90.0153 42.287 89.6062 42.9603C89.1971 43.625 88.9926 44.3836 88.9926 45.2358V57.2273H85.1701Z"
        fill="white" />
    <path
        d="M105.796 65C104.237 65 102.894 64.7955 101.769 64.3864C100.653 63.9773 99.741 63.4361 99.0336 62.7628C98.3262 62.0895 97.7978 61.3523 97.4484 60.5512L100.734 59.1961C100.964 59.5711 101.271 59.9674 101.654 60.385C102.046 60.8111 102.575 61.1733 103.24 61.4716C103.913 61.7699 104.778 61.9191 105.835 61.9191C107.284 61.9191 108.481 61.5654 109.427 60.858C110.373 60.1591 110.846 59.0426 110.846 57.5086V53.6478H110.603C110.373 54.0654 110.041 54.5299 109.606 55.0412C109.18 55.5526 108.592 55.9958 107.842 56.3708C107.092 56.7458 106.116 56.9333 104.914 56.9333C103.363 56.9333 101.965 56.5711 100.721 55.8466C99.4853 55.1137 98.5052 54.0355 97.7807 52.6122C97.0648 51.1804 96.7069 49.4205 96.7069 47.3324C96.7069 45.2444 97.0606 43.4546 97.768 41.9631C98.4839 40.4716 99.464 39.3296 100.708 38.537C101.953 37.7358 103.363 37.3353 104.94 37.3353C106.159 37.3353 107.143 37.5398 107.893 37.9489C108.643 38.3495 109.227 38.8182 109.644 39.3551C110.071 39.8921 110.399 40.3651 110.629 40.7742H110.91V37.5909H114.656V57.662C114.656 59.3495 114.264 60.7344 113.48 61.8168C112.696 62.8992 111.634 63.7003 110.296 64.2202C108.967 64.7401 107.467 65 105.796 65ZM105.758 53.7628C106.857 53.7628 107.786 53.5071 108.545 52.9958C109.312 52.4759 109.892 51.7344 110.284 50.7713C110.684 49.7998 110.884 48.6364 110.884 47.2813C110.884 45.9603 110.688 44.7969 110.296 43.7912C109.904 42.7855 109.329 42.0015 108.571 41.439C107.812 40.8679 106.874 40.5824 105.758 40.5824C104.607 40.5824 103.649 40.8807 102.882 41.4773C102.115 42.0654 101.535 42.8665 101.143 43.8807C100.759 44.8949 100.568 46.0284 100.568 47.2813C100.568 48.5682 100.764 49.6975 101.156 50.6691C101.548 51.6407 102.127 52.3992 102.894 52.9446C103.67 53.4901 104.624 53.7628 105.758 53.7628Z"
        fill="white" />
    <path
        d="M127.525 57.6236C125.591 57.6236 123.924 57.2103 122.527 56.3836C121.137 55.5483 120.064 54.3765 119.305 52.8679C118.555 51.3509 118.18 49.5739 118.18 47.537C118.18 45.5256 118.555 43.7529 119.305 42.2188C120.064 40.6847 121.12 39.4872 122.476 38.6265C123.839 37.7657 125.433 37.3353 127.257 37.3353C128.365 37.3353 129.439 37.5185 130.478 37.885C131.518 38.2515 132.451 38.8267 133.278 39.6108C134.105 40.3949 134.757 41.4134 135.234 42.6662C135.711 43.9105 135.95 45.4233 135.95 47.2046V48.5597H120.341V45.6961H132.204C132.204 44.6904 132 43.7997 131.591 43.0242C131.181 42.2401 130.606 41.6222 129.865 41.1705C129.132 40.7188 128.271 40.4929 127.282 40.4929C126.208 40.4929 125.271 40.7571 124.47 41.2855C123.677 41.8054 123.064 42.4872 122.629 43.331C122.203 44.1662 121.99 45.0739 121.99 46.054V48.2912C121.99 49.6037 122.22 50.7202 122.68 51.6407C123.149 52.5611 123.801 53.2642 124.636 53.75C125.471 54.2273 126.447 54.4659 127.564 54.4659C128.288 54.4659 128.949 54.3637 129.545 54.1591C130.142 53.9461 130.657 53.6307 131.092 53.2131C131.527 52.7955 131.859 52.2799 132.089 51.6662L135.707 52.3182C135.417 53.3836 134.897 54.3168 134.147 55.1179C133.406 55.9105 132.473 56.5284 131.348 56.9716C130.231 57.4063 128.957 57.6236 127.525 57.6236Z"
        fill="white" />
    <path d="M147.294 34.4461V31.0455H167.557V34.4461H159.388V57.2273H155.45V34.4461H147.294Z"
        fill="white" />
    <path
        d="M174.83 45.5682V57.2273H171.008V31.0455H174.779V40.787H175.022C175.482 39.7301 176.185 38.8907 177.131 38.2685C178.077 37.6463 179.313 37.3353 180.839 37.3353C182.185 37.3353 183.361 37.6123 184.367 38.1662C185.381 38.7202 186.165 39.5469 186.719 40.6463C187.282 41.7372 187.563 43.1009 187.563 44.7372V57.2273H183.741V45.1975C183.741 43.7571 183.37 42.6407 182.628 41.848C181.887 41.0469 180.856 40.6463 179.535 40.6463C178.631 40.6463 177.822 40.8381 177.106 41.2216C176.398 41.6051 175.84 42.1676 175.431 42.9091C175.03 43.6421 174.83 44.5284 174.83 45.5682Z"
        fill="white" />
    <path
        d="M200.407 57.6236C198.472 57.6236 196.806 57.2103 195.408 56.3836C194.019 55.5483 192.945 54.3765 192.187 52.8679C191.437 51.3509 191.062 49.5739 191.062 47.537C191.062 45.5256 191.437 43.7529 192.187 42.2188C192.945 40.6847 194.002 39.4872 195.357 38.6265C196.721 37.7657 198.315 37.3353 200.138 37.3353C201.246 37.3353 202.32 37.5185 203.36 37.885C204.4 38.2515 205.333 38.8267 206.16 39.6108C206.986 40.3949 207.638 41.4134 208.116 42.6662C208.593 43.9105 208.832 45.4233 208.832 47.2046V48.5597H193.222V45.6961H205.086C205.086 44.6904 204.881 43.7997 204.472 43.0242C204.063 42.2401 203.488 41.6222 202.746 41.1705C202.013 40.7188 201.153 40.4929 200.164 40.4929C199.09 40.4929 198.153 40.7571 197.352 41.2855C196.559 41.8054 195.945 42.4872 195.511 43.331C195.085 44.1662 194.871 45.0739 194.871 46.054V48.2912C194.871 49.6037 195.102 50.7202 195.562 51.6407C196.031 52.5611 196.683 53.2642 197.518 53.75C198.353 54.2273 199.329 54.4659 200.445 54.4659C201.17 54.4659 201.83 54.3637 202.427 54.1591C203.023 53.9461 203.539 53.6307 203.974 53.2131C204.408 52.7955 204.741 52.2799 204.971 51.6662L208.589 52.3182C208.299 53.3836 207.779 54.3168 207.029 55.1179C206.288 55.9105 205.354 56.5284 204.229 56.9716C203.113 57.4063 201.839 57.6236 200.407 57.6236Z"
        fill="white" />
    <path
        d="M253.297 57.662C252.052 57.662 250.927 57.4319 249.922 56.9716C248.916 56.5029 248.119 55.8253 247.531 54.939C246.951 54.0526 246.662 52.9659 246.662 51.679C246.662 50.5711 246.875 49.6591 247.301 48.9432C247.727 48.2273 248.302 47.6605 249.027 47.2429C249.751 46.8253 250.561 46.51 251.456 46.2969C252.351 46.0838 253.263 45.9219 254.192 45.8111C255.368 45.6747 256.322 45.564 257.055 45.4787C257.788 45.385 258.321 45.2358 258.653 45.0313C258.986 44.8267 259.152 44.4944 259.152 44.0341V43.9446C259.152 42.8282 258.836 41.9631 258.206 41.3495C257.584 40.7358 256.655 40.429 255.419 40.429C254.132 40.429 253.118 40.7145 252.376 41.2855C251.643 41.848 251.136 42.4745 250.855 43.1648L247.263 42.3466C247.689 41.1534 248.311 40.1904 249.129 39.4574C249.956 38.7159 250.906 38.179 251.98 37.8466C253.054 37.5057 254.183 37.3353 255.368 37.3353C256.152 37.3353 256.983 37.429 257.861 37.6165C258.747 37.7955 259.574 38.1279 260.341 38.6137C261.116 39.0995 261.751 39.7941 262.246 40.6975C262.74 41.5924 262.987 42.7557 262.987 44.1875V57.2273H259.254V54.5426H259.101C258.853 55.037 258.483 55.5228 257.988 56C257.494 56.4773 256.859 56.8736 256.084 57.189C255.308 57.5043 254.379 57.662 253.297 57.662ZM254.128 54.5938C255.184 54.5938 256.088 54.385 256.838 53.9674C257.596 53.5497 258.172 53.0043 258.564 52.331C258.964 51.6492 259.165 50.9205 259.165 50.1449V47.6137C259.028 47.75 258.764 47.8779 258.372 47.9972C257.988 48.108 257.549 48.206 257.055 48.2912C256.561 48.3679 256.079 48.4404 255.611 48.5086C255.142 48.5682 254.75 48.6194 254.434 48.662C253.693 48.7557 253.015 48.9134 252.402 49.135C251.797 49.3566 251.311 49.6762 250.944 50.0938C250.586 50.5029 250.407 51.0483 250.407 51.7301C250.407 52.6762 250.757 53.3921 251.456 53.8779C252.155 54.3551 253.045 54.5938 254.128 54.5938Z"
        fill="white" />
    <path
        d="M267.358 57.2273V37.5909H271.181V57.2273H267.358ZM269.289 34.5611C268.624 34.5611 268.053 34.3395 267.576 33.8963C267.107 33.4446 266.872 32.9077 266.872 32.2855C266.872 31.6549 267.107 31.1179 267.576 30.6747C268.053 30.223 268.624 29.9972 269.289 29.9972C269.953 29.9972 270.52 30.223 270.989 30.6747C271.466 31.1179 271.705 31.6549 271.705 32.2855C271.705 32.9077 271.466 33.4446 270.989 33.8963C270.52 34.3395 269.953 34.5611 269.289 34.5611Z"
        fill="white" />
    <path
        d="M279.426 45.5682V57.2273H275.603V37.5909H279.272V40.787H279.515C279.967 39.7472 280.674 38.912 281.637 38.2813C282.609 37.6506 283.832 37.3353 285.306 37.3353C286.644 37.3353 287.816 37.6165 288.822 38.179C289.828 38.733 290.607 39.5597 291.161 40.6591C291.715 41.7586 291.992 43.1179 291.992 44.7372V57.2273H288.17V45.1975C288.17 43.7742 287.799 42.662 287.058 41.8608C286.316 41.0512 285.298 40.6463 284.002 40.6463C283.116 40.6463 282.328 40.8381 281.637 41.2216C280.955 41.6051 280.414 42.1676 280.014 42.9091C279.622 43.6421 279.426 44.5284 279.426 45.5682Z"
        fill="white" />
    <path
        d="M305.565 37.5909V40.6591H294.839V37.5909H305.565ZM297.715 32.8864H301.538V51.4617C301.538 52.2032 301.649 52.7614 301.87 53.1364C302.092 53.5029 302.377 53.7543 302.727 53.8907C303.085 54.0185 303.473 54.0824 303.89 54.0824C304.197 54.0824 304.465 54.0611 304.696 54.0185C304.926 53.9759 305.105 53.9418 305.233 53.9162L305.923 57.0739C305.701 57.1591 305.386 57.2444 304.977 57.3296C304.568 57.4233 304.056 57.4745 303.443 57.483C302.437 57.5 301.5 57.3211 300.63 56.9461C299.761 56.5711 299.058 55.9915 298.521 55.2074C297.984 54.4233 297.715 53.439 297.715 52.2543V32.8864Z"
        fill="white" />
    <path
        d="M317.325 57.6236C315.391 57.6236 313.725 57.2103 312.327 56.3836C310.938 55.5483 309.864 54.3765 309.105 52.8679C308.355 51.3509 307.98 49.5739 307.98 47.537C307.98 45.5256 308.355 43.7529 309.105 42.2188C309.864 40.6847 310.921 39.4872 312.276 38.6265C313.639 37.7657 315.233 37.3353 317.057 37.3353C318.165 37.3353 319.239 37.5185 320.279 37.885C321.318 38.2515 322.252 38.8267 323.078 39.6108C323.905 40.3949 324.557 41.4134 325.034 42.6662C325.511 43.9105 325.75 45.4233 325.75 47.2046V48.5597H310.141V45.6961H322.004C322.004 44.6904 321.8 43.7997 321.391 43.0242C320.982 42.2401 320.406 41.6222 319.665 41.1705C318.932 40.7188 318.071 40.4929 317.082 40.4929C316.009 40.4929 315.071 40.7571 314.27 41.2855C313.477 41.8054 312.864 42.4872 312.429 43.331C312.003 44.1662 311.79 45.0739 311.79 46.054V48.2912C311.79 49.6037 312.02 50.7202 312.48 51.6407C312.949 52.5611 313.601 53.2642 314.436 53.75C315.271 54.2273 316.247 54.4659 317.364 54.4659C318.088 54.4659 318.749 54.3637 319.345 54.1591C319.942 53.9461 320.457 53.6307 320.892 53.2131C321.327 52.7955 321.659 52.2799 321.889 51.6662L325.507 52.3182C325.217 53.3836 324.698 54.3168 323.948 55.1179C323.206 55.9105 322.273 56.5284 321.148 56.9716C320.031 57.4063 318.757 57.6236 317.325 57.6236Z"
        fill="white" />
    <path
        d="M329.271 57.2273V37.5909H332.966V40.7103H333.17C333.528 39.6534 334.159 38.8225 335.062 38.2174C335.974 37.6037 337.006 37.2969 338.156 37.2969C338.395 37.2969 338.676 37.3054 339 37.3225C339.332 37.3395 339.592 37.3608 339.78 37.3864V41.0426C339.626 41 339.354 40.9532 338.962 40.902C338.57 40.8424 338.177 40.8125 337.785 40.8125C336.882 40.8125 336.077 41.0043 335.369 41.3878C334.67 41.7628 334.116 42.287 333.707 42.9603C333.298 43.625 333.094 44.3836 333.094 45.2358V57.2273H329.271Z"
        fill="white" />
    <path
        d="M232.221 57.2273L232.22 3.22729C243.735 3.22729 253.149 3.22729 253.149 3.22729C276.405 3.22729 262.475 30.9761 241.545 33.5589"
        stroke="white" stroke-width="5" />
</svg>
    